<svg xmlns="http://www.w3.org/2000/svg" width="1600" height="900" viewBox="0 0 1600 900" role="img" aria-labelledby="title desc">
  <title id="title">SimForge authoring and simulation feedback loop</title>
  <desc id="desc">Text Prompt flows to Blender 3D Design, Physics and USD Export, and Isaac Sim Simulation. A feedback and improvements box sends a dotted line back to the design revision point before export.</desc>
  <defs>
    <marker id="mint-arrow" viewBox="0 0 20 20" markerWidth="20" markerHeight="20" refX="18" refY="10" orient="auto" markerUnits="userSpaceOnUse">
      <path d="M0 0L20 10L0 20Z" fill="#68ead0"/>
    </marker>
    <marker id="blue-arrow" viewBox="0 0 20 20" markerWidth="20" markerHeight="20" refX="18" refY="10" orient="auto" markerUnits="userSpaceOnUse">
      <path d="M0 0L20 10L0 20Z" fill="#72b5d5"/>
    </marker>
  </defs>

  <rect width="1600" height="900" fill="#071019"/>

  <g font-family="Segoe UI, Arial, sans-serif" text-anchor="middle">
    <text x="800" y="105" fill="#68ead0" font-size="18" font-weight="700" letter-spacing="7">SIMFORGE EVOLVE</text>
    <text x="800" y="153" fill="#dbe9ed" font-size="38" font-weight="650">Idea to simulation feedback</text>
  </g>

  <g fill="#0a1720" stroke="#28505b" stroke-width="3">
    <rect x="70" y="245" width="300" height="180" rx="20"/>
    <rect x="450" y="245" width="300" height="180" rx="20"/>
    <rect x="850" y="245" width="300" height="180" rx="20"/>
    <rect x="1230" y="245" width="300" height="180" rx="20"/>
  </g>

  <g font-family="Segoe UI, Arial, sans-serif" fill="#dbe9ed" font-size="27" font-weight="650" text-anchor="middle">
    <text x="220" y="326">TEXT PROMPT</text>
    <text x="600" y="326">BLENDER 3D</text>
    <text x="600" y="362">DESIGN</text>
    <text x="1000" y="326">PHYSICS + USD</text>
    <text x="1000" y="362">EXPORT</text>
    <text x="1380" y="326">ISAAC SIM</text>
    <text x="1380" y="362">SIMULATION</text>
  </g>

  <g fill="none" stroke="#68ead0" stroke-width="6" stroke-linecap="round" marker-end="url(#mint-arrow)">
    <path d="M370 335H450"/>
    <path d="M750 335H850"/>
    <path d="M1150 335H1230"/>
  </g>

  <rect x="480" y="650" width="640" height="130" rx="22" fill="#103c39" stroke="#68ead0" stroke-width="3"/>
  <g font-family="Segoe UI, Arial, sans-serif" text-anchor="middle">
    <text x="800" y="710" fill="#dbe9ed" font-size="29" font-weight="650">FEEDBACK LOOP + IMPROVEMENTS</text>
    <text x="800" y="748" fill="#a8d8cc" font-size="18">Use simulation evidence to improve the design</text>
  </g>

  <path d="M1380 425V530Q1380 550 1360 550H1140Q1120 550 1120 570V650"
        fill="none" stroke="#72b5d5" stroke-width="5" stroke-linecap="round" stroke-linejoin="round" marker-end="url(#blue-arrow)"/>

  <path d="M600 650V445"
        fill="none" stroke="#68ead0" stroke-width="5" stroke-linecap="round" stroke-linejoin="round"
        stroke-dasharray="13 14" marker-end="url(#mint-arrow)"/>
</svg>
